<svg width="76" height="76" viewBox="0 0 76 76" fill="none" xmlns="http://www.w3.org/2000/svg">
<g id="more" clip-path="url(#clip0_0_64)">
<path id="Vector" d="M38 76C17.0139 76 0 58.9861 0 38C0 17.0139 17.0139 0 38 0C58.9861 0 76 17.0139 76 38C76 58.9861 58.9861 76 38 76Z" fill="#D60D1D"/>
<path id="Vector_2" d="M14.0144 30.8054C14.0144 21.8424 20.0387 16.3907 27.6387 16.3907C32.0112 16.3907 35.6693 17.8955 38.0355 21.6955C40.2597 17.8955 44.1307 16.3907 48.3613 16.3907C55.9613 16.3907 61.9856 21.8424 61.9856 30.8054V50.312C61.9856 52.5363 60.2629 54.3299 58.0437 54.3299C55.8245 54.3299 54.1019 52.5363 54.1019 50.312V30.7344C54.1019 26.0022 51.4469 23.707 48.0067 23.707C44.5664 23.707 41.9824 26.0022 41.9824 30.7344V50.312C41.9824 52.5363 40.1888 54.3299 38.0405 54.3299C35.8923 54.3299 34.0987 52.5363 34.0987 50.312V30.7344C34.0987 26.0022 31.3728 23.707 28.0035 23.707C24.6341 23.707 21.9083 26.0022 21.9083 30.7344V50.312C21.9083 52.5363 20.1856 54.3299 17.9664 54.3299C15.7472 54.3299 14.0245 52.5363 14.0245 50.312V30.8054H14.0144Z" fill="#FFBC0F"/>
</g>
<defs>
<clipPath id="clip0_0_64">
<rect width="76" height="76" fill="white"/>
</clipPath>
</defs>
</svg>
